# xmcd
#
# Track frame offsets: 
#        150
#        18429
#        34292
#        54828
#        75816
#        92700
#        114514
#        129608
#        150702
#        174946
#        189913
#
# Disc length: 3090 seconds
#
# Revision: 4
# Processed by: cddbd v1.5.2PL0 Copyright (c) Steve Scherf et al.
# Submitted via: ExactAudioCopy v0.99pb4
#
DISCID=770c100b
DTITLE=Randy Rogers Band - Roller Coaster
DYEAR=2004
DGENRE=Country
TTITLE0=Down And Out
TTITLE1=Somebody Take Me Home
TTITLE2=This Time Around
TTITLE3=Love Must Follow You Around
TTITLE4=Lay It All On You
TTITLE5=Tonight's Not The Night (For Goodbye)
TTITLE6=Again
TTITLE7=Can't Slow Down
TTITLE8=They Call It The Hill Country
TTITLE9=Ten Miles Deep
TTITLE10=I Miss You With Me
EXTD=
EXTT0=
EXTT1=
EXTT2=
EXTT3=
EXTT4=
EXTT5=
EXTT6=
EXTT7=
EXTT8=
EXTT9=
EXTT10=
PLAYORDER=
